<?xml version="1.0" standalone="no"?>
<!DOCTYPE svg PUBLIC "-//W3C//DTD SVG 20010904//EN"
 "http://www.w3.org/TR/2001/REC-SVG-20010904/DTD/svg10.dtd">
<svg version="1.0" xmlns="http://www.w3.org/2000/svg"
 width="447.000000pt" height="348.000000pt" viewBox="0 0 447.000000 348.000000"
 preserveAspectRatio="xMidYMid meet">

<g transform="translate(0.000000,348.000000) scale(0.100000,-0.100000)"
fill="#000000" stroke="none">
<path d="M1491 3084 c-212 -57 -371 -270 -371 -498 0 -140 42 -239 160 -380
107 -127 156 -150 228 -106 40 25 66 81 58 125 -4 19 -36 66 -82 121 -94 109
-117 158 -118 240 0 160 143 290 298 269 80 -10 143 -48 241 -145 95 -94 129
-114 173 -104 15 4 70 49 122 100 142 138 233 175 351 141 114 -34 189 -136
189 -259 0 -38 -7 -84 -15 -104 -9 -21 -139 -163 -334 -363 -350 -359 -351
-361 -316 -435 32 -67 118 -89 177 -45 18 13 173 166 344 339 338 343 360 372
385 505 14 75 6 193 -17 265 -28 83 -110 197 -181 252 -89 67 -156 90 -283 95
-94 5 -113 3 -185 -21 -79 -27 -189 -92 -234 -140 l-23 -25 -64 53 c-114 94
-229 136 -369 135 -44 0 -104 -7 -134 -15z"/>
<path d="M2375 2761 c-44 -20 -82 -57 -71 -68 4 -4 15 -2 24 5 53 38 79 51
114 57 21 4 38 11 38 16 0 15 -63 10 -105 -10z"/>
<path d="M2510 2762 c0 -12 69 -46 78 -38 10 10 -36 46 -59 46 -10 0 -19 -3
-19 -8z"/>
<path d="M2230 1286 l0 -76 96 0 97 0 -7 47 c-9 70 -37 94 -120 100 l-66 6 0
-77z"/>
<path d="M210 1141 c-80 -26 -116 -47 -144 -84 -49 -64 -56 -111 -56 -379 l0
-248 90 0 90 0 0 233 c0 132 5 248 11 270 29 104 209 104 238 0 6 -22 11 -138
11 -270 l0 -233 90 0 90 0 0 244 c0 135 4 256 10 270 22 58 129 86 189 50 54
-32 56 -41 59 -286 4 -222 4 -226 27 -248 18 -17 40 -24 90 -28 l67 -5 -5 259
c-6 340 -16 371 -142 434 -66 33 -75 35 -170 35 -90 0 -106 -3 -158 -28 -54
-27 -59 -28 -82 -13 -68 45 -211 57 -305 27z"/>
<path d="M1300 1145 c-75 -24 -132 -81 -154 -152 -7 -23 -6 -23 79 -23 73 0
90 3 116 23 50 36 177 28 199 -13 28 -53 -15 -83 -152 -105 -116 -19 -213 -65
-241 -113 -28 -48 -34 -150 -13 -207 42 -109 165 -154 345 -125 117 20 198 82
226 174 20 68 21 382 1 429 -19 44 -63 83 -116 103 -63 23 -231 28 -290 9z
m250 -407 c0 -32 -8 -68 -21 -94 -40 -83 -163 -111 -216 -49 -53 61 -11 134
91 155 32 7 75 18 95 25 52 19 51 20 51 -37z"/>
<path d="M2663 1151 c-58 -15 -122 -60 -148 -105 -42 -72 -38 -76 62 -76 76 0
90 3 111 23 19 18 35 22 86 22 73 0 116 -22 116 -60 0 -36 -42 -62 -123 -75
-130 -20 -204 -47 -246 -89 -41 -41 -51 -72 -51 -161 0 -83 31 -137 101 -175
51 -28 61 -30 159 -30 127 1 190 20 253 75 70 62 80 97 85 295 2 108 0 186 -7
212 -27 99 -109 144 -266 149 -55 2 -114 0 -132 -5z m237 -397 c0 -106 -50
-177 -135 -189 -51 -8 -100 7 -115 36 -17 30 -12 87 10 109 10 10 45 26 77 35
32 9 76 22 98 29 62 21 65 20 65 -20z"/>
<path d="M3335 1147 c-95 -32 -144 -68 -178 -132 -21 -38 -22 -56 -25 -312
l-3 -273 90 0 91 0 0 245 c0 271 4 291 60 320 16 8 50 15 76 15 39 0 51 -5 80
-34 l34 -34 1 -208 c0 -248 6 -273 64 -292 22 -7 58 -12 80 -10 l40 3 0 245
c-1 279 -10 334 -67 391 -72 72 -242 109 -343 76z"/>
<path d="M4005 1142 c-78 -25 -148 -101 -175 -188 -40 -129 -22 -320 39 -409
93 -138 346 -164 479 -49 104 89 142 307 81 470 -30 81 -107 157 -179 178 -68
20 -181 19 -245 -2z m204 -161 c49 -35 66 -84 66 -191 -1 -110 -23 -166 -78
-201 -59 -37 -149 -12 -181 50 -22 41 -38 156 -30 210 7 49 34 111 56 128 45
36 119 38 167 4z"/>
<path d="M2090 1140 c-172 -22 -266 -103 -299 -258 -6 -29 -11 -143 -11 -252
l0 -200 89 0 89 0 4 213 c3 229 8 252 59 290 17 12 50 21 93 24 l66 6 0 93 c0
105 9 97 -90 84z"/>
<path d="M2230 791 l0 -362 93 3 92 3 0 327 0 328 -26 26 c-22 21 -39 27 -93
31 l-66 6 0 -362z"/>
<path d="M2135 298 c-27 -16 -44 -39 -45 -61 0 -11 -9 -21 -20 -24 -23 -6 -27
-23 -5 -23 11 0 14 -7 10 -22 -3 -13 -11 -53 -19 -91 -13 -62 -12 -67 4 -67
14 0 21 18 35 90 17 88 18 90 46 90 16 0 29 5 29 10 0 6 -11 10 -25 10 -18 0
-25 5 -25 20 0 21 43 55 59 46 5 -4 13 -1 17 5 7 11 -12 29 -31 29 -5 -1 -19
-6 -30 -12z"/>
<path d="M3155 287 c-18 -25 -6 -33 24 -17 25 13 27 26 6 34 -8 3 -21 -4 -30
-17z"/>
<path d="M1011 263 c-6 -21 -11 -45 -11 -54 0 -27 -12 -29 -38 -9 -45 36 -110
21 -142 -32 -31 -52 -23 -113 19 -145 22 -17 73 -16 97 2 25 19 35 19 27 -1
-4 -12 -1 -15 13 -12 15 2 23 27 46 138 32 161 31 150 13 150 -8 0 -19 -16
-24 -37z m-51 -93 c44 -44 6 -130 -57 -130 -34 0 -46 8 -62 37 -15 30 -4 69
26 93 33 25 68 25 93 0z"/>
<path d="M1637 293 c-2 -5 -7 -26 -11 -48 -13 -75 -14 -76 -42 -48 -22 21 -32
25 -66 20 -58 -8 -90 -42 -96 -105 -4 -44 -1 -54 21 -76 30 -30 80 -35 115
-10 20 14 22 14 22 -1 0 -10 7 -15 17 -13 13 2 23 32 45 138 32 161 31 150 14
150 -8 0 -17 -3 -19 -7z m-57 -123 c24 -24 25 -51 5 -89 -23 -46 -80 -56 -115
-21 -29 29 -25 66 9 101 35 34 72 38 101 9z"/>
<path d="M3570 279 c0 -25 33 -22 38 4 2 12 -3 17 -17 17 -15 0 -21 -6 -21
-21z"/>
<path d="M445 208 c-7 -22 -35 -169 -35 -184 0 -8 6 -14 14 -14 10 0 19 20 26
58 15 71 33 101 71 114 35 12 41 43 7 32 -13 -3 -31 -13 -40 -21 -15 -13 -16
-13 -11 6 4 15 1 21 -11 21 -9 0 -18 -6 -21 -12z"/>
<path d="M618 204 c-62 -33 -76 -117 -29 -165 31 -31 83 -39 122 -19 33 18 21
30 -25 24 -49 -7 -81 6 -89 36 -5 19 -1 20 78 20 89 0 97 5 88 53 -11 58 -85
84 -145 51z m109 -44 l12 -25 -65 -3 c-37 -2 -69 0 -72 3 -3 3 5 17 18 31 33
34 89 31 107 -6z"/>
<path d="M1128 203 c-35 -22 -53 -56 -53 -104 0 -48 27 -77 78 -86 44 -7 98
13 90 33 -4 10 -10 11 -23 4 -30 -16 -75 -12 -93 8 -32 35 -21 42 68 42 84 0
85 0 85 25 0 79 -82 121 -152 78z m104 -30 c36 -32 23 -43 -52 -43 -67 0 -70
1 -60 20 22 40 79 53 112 23z"/>
<path d="M1744 201 c-37 -23 -59 -77 -49 -121 13 -59 86 -87 149 -59 38 18 22
29 -32 22 -37 -4 -52 -2 -65 12 -36 36 -22 45 69 45 l87 0 -6 38 c-12 73 -86
104 -153 63z m110 -33 c9 -12 16 -26 16 -30 0 -5 -31 -8 -70 -8 -38 0 -70 3
-70 7 0 4 10 17 22 30 29 31 81 31 102 1z"/>
<path d="M2204 186 c-65 -65 -37 -176 44 -176 15 0 39 7 55 14 23 13 27 13 27
0 0 -8 7 -14 15 -14 8 0 15 2 15 4 0 2 9 48 20 101 11 54 18 100 16 103 -11
10 -36 -9 -36 -27 0 -19 -2 -18 -25 4 -37 38 -88 34 -131 -9z m121 -16 c42
-46 4 -130 -58 -130 -66 0 -90 72 -42 124 29 32 74 35 100 6z"/>
<path d="M2475 208 c-7 -22 -35 -169 -35 -184 0 -8 6 -14 14 -14 10 0 19 20
26 58 15 71 33 101 71 114 35 12 41 43 7 32 -13 -3 -31 -13 -40 -21 -15 -13
-16 -13 -11 6 4 15 1 21 -11 21 -9 0 -18 -6 -21 -12z"/>
<path d="M2630 216 c0 -2 -9 -48 -20 -101 -11 -54 -18 -100 -16 -103 15 -15
34 14 44 68 13 72 42 110 83 110 41 0 53 -22 45 -83 -3 -28 -9 -63 -12 -76 -6
-19 -3 -22 12 -19 14 2 21 19 31 68 15 73 43 110 84 110 41 0 53 -22 45 -83
-3 -28 -9 -63 -12 -76 -6 -19 -3 -22 12 -19 13 2 21 19 31 63 17 83 16 102 -7
125 -26 26 -80 26 -113 0 l-26 -21 -21 21 c-24 24 -76 26 -108 4 -20 -14 -22
-14 -22 0 0 9 -7 16 -15 16 -8 0 -15 -2 -15 -4z"/>
<path d="M3068 203 c-35 -22 -53 -56 -53 -105 0 -72 68 -108 135 -73 27 14 30
14 30 0 0 -8 6 -15 14 -15 9 0 20 33 34 102 11 57 19 105 17 107 -11 10 -35
-11 -35 -30 0 -21 -1 -21 -25 5 -28 31 -76 34 -117 9z m104 -30 c25 -23 24
-81 -4 -110 -44 -47 -118 -20 -118 44 0 65 77 107 122 66z"/>
<path d="M3338 203 c-72 -45 -64 -171 12 -188 37 -8 85 2 101 21 16 20 5 28
-19 15 -53 -28 -112 3 -112 59 0 59 68 98 120 70 26 -14 39 9 15 27 -26 18
-84 16 -117 -4z"/>
<path d="M3555 198 c-11 -50 -35 -170 -35 -179 0 -5 7 -9 15 -9 8 0 15 2 15 4
0 2 9 48 20 101 24 116 23 105 5 105 -8 0 -17 -10 -20 -22z"/>
<path d="M3664 186 c-29 -29 -34 -41 -34 -80 0 -36 6 -52 25 -71 28 -29 79
-33 113 -9 20 14 22 14 22 0 0 -25 29 -19 35 6 11 50 35 170 35 179 0 20 -30
8 -36 -15 l-6 -24 -23 24 c-37 37 -88 33 -131 -10z m116 -6 c27 -14 34 -63 15
-99 -25 -50 -98 -56 -124 -10 -37 66 41 145 109 109z"/>
<path d="M3931 201 c-38 -38 -26 -66 42 -100 45 -22 44 -55 -1 -59 -18 -2 -44
3 -57 12 -22 14 -35 12 -35 -5 0 -5 13 -15 30 -24 65 -33 134 -8 128 48 -2 26
-11 36 -43 53 -48 25 -55 57 -13 62 15 2 36 -2 47 -7 14 -8 22 -8 27 0 10 17
-11 31 -59 36 -36 4 -49 1 -66 -16z"/>
</g>
</svg>
